<svg xmlns="http://www.w3.org/2000/svg" width="18.326" height="18.31" viewBox="0 0 18.326 18.31">
  <g id="Group_938" data-name="Group 938" transform="translate(0.176 0.166)">
    <g id="Group_948" data-name="Group 948">
      <path id="Path_1251" data-name="Path 1251" d="M355.34-797.411c-.047.347-.082.7-.142,1.039a8.842,8.842,0,0,1-1.382,3.424.693.693,0,0,1-.974.2.693.693,0,0,1-.191-.975,7.248,7.248,0,0,0,1.148-2.825,7.414,7.414,0,0,0-2.972-7.5,7.222,7.222,0,0,0-4.837-1.474,7.6,7.6,0,0,0-7.1,6.188,7.574,7.574,0,0,0,5.193,8.635,7.437,7.437,0,0,0,6.11-.7.8.8,0,0,1,.583-.134.707.707,0,0,1,.556.568.7.7,0,0,1-.345.731,8.166,8.166,0,0,1-2.386,1c-.511.119-1.036.176-1.555.262-.045.008-.09.02-.135.03h-1.124c-.045-.01-.09-.023-.135-.029-.347-.048-.7-.077-1.042-.143a9.008,9.008,0,0,1-6.92-11.273,9,9,0,0,1,10.794-6.3,9.008,9.008,0,0,1,6.725,7.194c.055.328.091.659.136.989Z" transform="translate(-337.34 806.935)" fill="#9e9e9e" stroke="#fff" stroke-width="0.3"/>
    </g>
    <path id="Path_1252" data-name="Path 1252" d="M487.844-658.071c.833,0,1.64,0,2.447,0a.7.7,0,0,1,.676.932.705.705,0,0,1-.691.472c-.738,0-1.475,0-2.213,0h-.22v.191c0,.755,0,1.51,0,2.266a.692.692,0,0,1-.545.686.677.677,0,0,1-.769-.351.944.944,0,0,1-.086-.387c-.008-.732,0-1.464,0-2.2v-.209h-.2c-.749,0-1.5,0-2.248,0a.7.7,0,0,1-.674-.934.7.7,0,0,1,.674-.469c.743,0,1.487,0,2.23,0h.218v-.192c0-.755,0-1.51,0-2.266a.693.693,0,0,1,.544-.687.679.679,0,0,1,.769.351.939.939,0,0,1,.087.387c.008.732,0,1.464,0,2.2Z" transform="translate(-478.137 666.365)" fill="#9e9e9e" stroke="#fff" stroke-width="0.3"/>
  </g>
</svg>
