<svg xmlns="http://www.w3.org/2000/svg" width="18.85" height="18.853" viewBox="0 0 18.85 18.853">
  <g id="Group_937" data-name="Group 937" transform="translate(0.15 0.15)">
    <path id="Path_1248" data-name="Path 1248" d="M-72.377-508.636a9.291,9.291,0,0,1,9.278,9.284,9.291,9.291,0,0,1-9.272,9.269,9.293,9.293,0,0,1-9.278-9.285A9.291,9.291,0,0,1-72.377-508.636Zm.006,1.325a7.961,7.961,0,0,0-7.953,7.953,7.962,7.962,0,0,0,7.936,7.95,7.961,7.961,0,0,0,7.964-7.943A7.96,7.96,0,0,0-72.371-507.311Z" transform="translate(81.649 508.636)" fill="#9e9e9e" stroke="#fff" stroke-width="0.3"/>
    <path id="Path_1249" data-name="Path 1249" d="M4.047-410.841h.6q3.023,0,6.045,0a.662.662,0,0,1,.684.88.648.648,0,0,1-.551.44.968.968,0,0,1-.145,0q-3.9,0-7.8,0a.679.679,0,0,1-.643-.336.631.631,0,0,1,.028-.7c.438-.661.875-1.323,1.321-1.979a.648.648,0,0,1,.911-.185.659.659,0,0,1,.189.912c-.1.159-.2.311-.308.466Z" transform="translate(2.493 418.13)" fill="#9e9e9e" stroke="#fff" stroke-width="0.3"/>
    <path id="Path_1250" data-name="Path 1250" d="M9.563-327.619H8.63q-2.824,0-5.647,0a1.16,1.16,0,0,1-.326-.035.652.652,0,0,1-.463-.7.667.667,0,0,1,.622-.589c.034,0,.069,0,.1,0q3.91,0,7.819,0a.7.7,0,0,1,.583.255.635.635,0,0,1,.031.772q-.656,1-1.33,2a.646.646,0,0,1-.912.179.653.653,0,0,1-.185-.911C9.124-326.968,9.335-327.274,9.563-327.619Z" transform="translate(2.447 338.883)" fill="#9e9e9e" stroke="#fff" stroke-width="0.3"/>
  </g>
</svg>
