<svg xmlns="http://www.w3.org/2000/svg" width="209.012" height="124.7" viewBox="0 0 209.012 124.7">
  <g id="Group_941" data-name="Group 941" transform="translate(-83 -344)">
    <g id="Group_940" data-name="Group 940">
      <g id="Group_915" data-name="Group 915" transform="translate(-712.166 367.043)">
        <path id="Path_1194" data-name="Path 1194" d="M799.367,237.843a1.705,1.705,0,0,0-.52-.291l.041-.031a1.879,1.879,0,0,0,.463-.624,1.966,1.966,0,0,0,.161-.822,1.776,1.776,0,0,0-.624-1.445,2.686,2.686,0,0,0-1.768-.52h-1.955v7.279h2.381a3.772,3.772,0,0,0,1.029-.13,2.188,2.188,0,0,0,.791-.4,1.854,1.854,0,0,0,.655-1.5,2.158,2.158,0,0,0-.161-.868,1.77,1.77,0,0,0-.493-.65m-3.473-3.026h1.248a1.868,1.868,0,0,1,1.175.333,1.1,1.1,0,0,1,.416.926,1.127,1.127,0,0,1-.416.915,1.315,1.315,0,0,1-.863.333h-1.56Zm2.881,5.5a1.841,1.841,0,0,1-1.217.344h-1.664v-2.63h1.664a1.841,1.841,0,0,1,1.217.344,1.185,1.185,0,0,1,.447.981,1.2,1.2,0,0,1-.447.961" transform="translate(0 -139.981)" fill="#167206"/>
        <path id="Path_1195" data-name="Path 1195" d="M811.986,241.389h4.846v-.728h-4.118v-2.1h3.39v-.728h-3.39v-2.995h4.118v-.728h-4.846Z" transform="translate(-9.156 -139.981)" fill="#167206"/>
        <path id="Path_1196" data-name="Path 1196" d="M832.376,237.555a3.475,3.475,0,0,0-.842-.437c-.308-.11-.6-.211-.879-.3q-.312-.1-.6-.213a2.739,2.739,0,0,1-.5-.25,1.222,1.222,0,0,1-.353-.338.806.806,0,0,1-.135-.468.919.919,0,0,1,.145-.494,1.419,1.419,0,0,1,.375-.4,1.939,1.939,0,0,1,.52-.265,1.807,1.807,0,0,1,.582-.1,1.766,1.766,0,0,1,.941.265,1.529,1.529,0,0,1,.629.764h.8a1.663,1.663,0,0,0-.192-.509,2.285,2.285,0,0,0-.452-.577,2.7,2.7,0,0,0-.712-.473,2.268,2.268,0,0,0-.972-.2,2.66,2.66,0,0,0-1.69.6,2.151,2.151,0,0,0-.536.655,1.67,1.67,0,0,0-.2.79,1.272,1.272,0,0,0,.166.65,1.751,1.751,0,0,0,.447.5,3.116,3.116,0,0,0,.64.38,7.8,7.8,0,0,0,.733.286q.4.125.8.271a3.63,3.63,0,0,1,.717.348,1.844,1.844,0,0,1,.52.489,1.162,1.162,0,0,1,.2.691,1.2,1.2,0,0,1-.151.614,1.321,1.321,0,0,1-.4.432,1.792,1.792,0,0,1-.572.255,2.686,2.686,0,0,1-.676.083,2.031,2.031,0,0,1-.749-.135,1.979,1.979,0,0,1-.6-.37,1.7,1.7,0,0,1-.406-.54,1.5,1.5,0,0,1-.146-.65H828.1a2.177,2.177,0,0,0,.224.988,2.459,2.459,0,0,0,.587.764,2.659,2.659,0,0,0,.843.493,2.793,2.793,0,0,0,.977.177,3.284,3.284,0,0,0,.967-.14,2.494,2.494,0,0,0,.806-.411,1.982,1.982,0,0,0,.551-.666,1.936,1.936,0,0,0,.2-.894,1.865,1.865,0,0,0-.25-1,2.321,2.321,0,0,0-.629-.671" transform="translate(-17.926 -139.682)" fill="#167206"/>
        <path id="Path_1197" data-name="Path 1197" d="M843.525,234.838h2.059v6.551h.728v-6.551h2.059v-.728h-4.846Z" transform="translate(-26.324 -139.981)" fill="#167206"/>
        <path id="Path_1198" data-name="Path 1198" d="M874,236.315a2.774,2.774,0,0,0-.161-.946,1.751,1.751,0,0,0-.494-.738,2.025,2.025,0,0,0-.764-.4,3.565,3.565,0,0,0-.972-.125H869.45v7.279h.728v-2.828h1.549a1.539,1.539,0,0,1,1.082.354,1.358,1.358,0,0,1,.343.437,1.265,1.265,0,0,1,.114.551v1.487h.728V239.9a1.912,1.912,0,0,0-.655-1.5c-.049-.035-.1-.066-.141-.093s-.092-.056-.14-.083a1.975,1.975,0,0,0,.291-.2,2.156,2.156,0,0,0,.655-1.716m-1.2,1.206a1.781,1.781,0,0,1-1.186.354h-1.445v-3.109h1.445a1.781,1.781,0,0,1,1.186.353,1.428,1.428,0,0,1,.458,1.186,1.523,1.523,0,0,1-.458,1.217" transform="translate(-40.436 -139.981)" fill="#167206"/>
        <path id="Path_1199" data-name="Path 1199" d="M887.18,240.193l-1.913-6.083h-.8l2.329,7.279h.769l2.33-7.279h-.8Z" transform="translate(-48.61 -139.981)" fill="#167206"/>
        <path id="Path_1200" data-name="Path 1200" d="M915.148,237.555a3.477,3.477,0,0,0-.842-.437c-.309-.11-.6-.211-.878-.3q-.312-.1-.6-.213a2.739,2.739,0,0,1-.5-.25,1.221,1.221,0,0,1-.353-.338.806.806,0,0,1-.135-.468.919.919,0,0,1,.145-.494,1.42,1.42,0,0,1,.375-.4,1.939,1.939,0,0,1,.52-.265,1.808,1.808,0,0,1,.582-.1,1.766,1.766,0,0,1,.941.265,1.531,1.531,0,0,1,.629.764h.8a1.662,1.662,0,0,0-.192-.509,2.285,2.285,0,0,0-.452-.577,2.7,2.7,0,0,0-.712-.473,2.268,2.268,0,0,0-.972-.2,2.66,2.66,0,0,0-1.69.6,2.149,2.149,0,0,0-.536.655,1.67,1.67,0,0,0-.2.79,1.273,1.273,0,0,0,.166.65,1.752,1.752,0,0,0,.447.5,3.116,3.116,0,0,0,.64.38,7.8,7.8,0,0,0,.733.286q.4.125.8.271a3.63,3.63,0,0,1,.717.348,1.845,1.845,0,0,1,.52.489,1.162,1.162,0,0,1,.2.691,1.2,1.2,0,0,1-.151.614,1.322,1.322,0,0,1-.4.432,1.791,1.791,0,0,1-.572.255,2.686,2.686,0,0,1-.676.083,2.031,2.031,0,0,1-.749-.135,1.978,1.978,0,0,1-.6-.37,1.7,1.7,0,0,1-.406-.54,1.5,1.5,0,0,1-.146-.65h-.728a2.177,2.177,0,0,0,.224.988,2.459,2.459,0,0,0,.587.764,2.66,2.66,0,0,0,.843.493,2.794,2.794,0,0,0,.977.177,3.284,3.284,0,0,0,.967-.14,2.5,2.5,0,0,0,.806-.411,1.979,1.979,0,0,0,.551-.666,1.936,1.936,0,0,0,.2-.894,1.865,1.865,0,0,0-.25-1,2.321,2.321,0,0,0-.629-.671" transform="translate(-62.983 -139.682)" fill="#167206"/>
        <path id="Path_1201" data-name="Path 1201" d="M930.742,234.11H928.58v7.279h.728v-2.828h1.435a3.908,3.908,0,0,0,1.009-.12,1.882,1.882,0,0,0,.759-.39,1.747,1.747,0,0,0,.458-.624,2.7,2.7,0,0,0,.166-1.1,2.087,2.087,0,0,0-.624-1.695,2.688,2.688,0,0,0-1.768-.52m1.2,3.411a1.953,1.953,0,0,1-1.175.333h-1.456v-3.036h1.456a1.868,1.868,0,0,1,1.175.333,1.413,1.413,0,0,1,.416,1.175,1.44,1.44,0,0,1-.416,1.2" transform="translate(-72.624 -139.981)" fill="#167206"/>
        <path id="Path_1202" data-name="Path 1202" d="M950.678,234.705a3.949,3.949,0,0,0-1.236-.837,3.851,3.851,0,0,0-3.012,0,3.94,3.94,0,0,0-2.071,2.075,3.861,3.861,0,0,0,0,3.016,3.937,3.937,0,0,0,2.071,2.075,3.856,3.856,0,0,0,3.012,0,3.94,3.94,0,0,0,2.072-2.075,3.86,3.86,0,0,0,0-3.016,3.957,3.957,0,0,0-.836-1.238m.165,3.964a3.213,3.213,0,0,1-1.685,1.693,3.01,3.01,0,0,1-1.217.25,3.049,3.049,0,0,1-1.222-.25,3.2,3.2,0,0,1-1.69-1.693,3.05,3.05,0,0,1-.25-1.224,3.009,3.009,0,0,1,.25-1.218,3.218,3.218,0,0,1,1.69-1.688,3.042,3.042,0,0,1,1.222-.25,3,3,0,0,1,1.217.25,3.231,3.231,0,0,1,1.685,1.688,3.007,3.007,0,0,1,.25,1.218,3.049,3.049,0,0,1-.25,1.224" transform="translate(-81.046 -139.682)" fill="#167206"/>
        <path id="Path_1203" data-name="Path 1203" d="M965.231,234.838h2.059v6.551h.728v-6.551h2.059v-.728h-4.846Z" transform="translate(-92.575 -139.981)" fill="#167206"/>
        <path id="Path_1204" data-name="Path 1204" d="M984.367,237.555a3.482,3.482,0,0,0-.843-.437c-.308-.11-.6-.211-.878-.3q-.313-.1-.6-.213a2.735,2.735,0,0,1-.5-.25,1.224,1.224,0,0,1-.354-.338.809.809,0,0,1-.135-.468.915.915,0,0,1,.145-.494,1.413,1.413,0,0,1,.375-.4,1.93,1.93,0,0,1,.52-.265,1.809,1.809,0,0,1,.583-.1,1.764,1.764,0,0,1,.941.265,1.531,1.531,0,0,1,.629.764h.8a1.673,1.673,0,0,0-.192-.509,2.308,2.308,0,0,0-.452-.577,2.7,2.7,0,0,0-.712-.473,2.267,2.267,0,0,0-.972-.2,2.658,2.658,0,0,0-1.69.6,2.15,2.15,0,0,0-.536.655,1.671,1.671,0,0,0-.2.79,1.268,1.268,0,0,0,.166.65,1.746,1.746,0,0,0,.448.5,3.13,3.13,0,0,0,.639.38,7.86,7.86,0,0,0,.734.286q.395.125.795.271a3.637,3.637,0,0,1,.718.348,1.849,1.849,0,0,1,.52.489,1.165,1.165,0,0,1,.2.691,1.2,1.2,0,0,1-.151.614,1.315,1.315,0,0,1-.4.432,1.782,1.782,0,0,1-.571.255,2.685,2.685,0,0,1-.676.083,2.028,2.028,0,0,1-.749-.135,1.971,1.971,0,0,1-.6-.37,1.693,1.693,0,0,1-.406-.54,1.5,1.5,0,0,1-.145-.65h-.728a2.184,2.184,0,0,0,.223.988,2.466,2.466,0,0,0,.587.764,2.671,2.671,0,0,0,.842.493,2.8,2.8,0,0,0,.978.177,3.277,3.277,0,0,0,.966-.14,2.5,2.5,0,0,0,.807-.411,1.972,1.972,0,0,0,.55-.666,1.926,1.926,0,0,0,.2-.894,1.865,1.865,0,0,0-.25-1,2.315,2.315,0,0,0-.629-.671" transform="translate(-100.662 -139.682)" fill="#167206"/>
        <path id="Path_1205" data-name="Path 1205" d="M1005.784,234.838h2.059v6.551h.728v-6.551h2.059v-.728h-4.846Z" transform="translate(-114.65 -139.981)" fill="#167206"/>
        <path id="Path_1206" data-name="Path 1206" d="M1027.152,234.705a3.946,3.946,0,0,0-1.236-.837,3.851,3.851,0,0,0-3.012,0,3.94,3.94,0,0,0-2.071,2.075,3.866,3.866,0,0,0,0,3.016,3.937,3.937,0,0,0,2.071,2.075,3.856,3.856,0,0,0,3.012,0,3.94,3.94,0,0,0,2.072-2.075,3.861,3.861,0,0,0,0-3.016,3.958,3.958,0,0,0-.836-1.238m.165,3.964a3.214,3.214,0,0,1-1.685,1.693,3.01,3.01,0,0,1-1.217.25,3.049,3.049,0,0,1-1.222-.25,3.2,3.2,0,0,1-1.69-1.693,3.051,3.051,0,0,1-.25-1.224,3.009,3.009,0,0,1,.25-1.218,3.218,3.218,0,0,1,1.69-1.688,3.042,3.042,0,0,1,1.222-.25,3,3,0,0,1,1.217.25,3.233,3.233,0,0,1,1.685,1.688,3.009,3.009,0,0,1,.25,1.218,3.051,3.051,0,0,1-.25,1.224" transform="translate(-122.675 -139.682)" fill="#167206"/>
        <path id="Path_1207" data-name="Path 1207" d="M1058.458,237.843a1.706,1.706,0,0,0-.52-.291l.041-.031a1.879,1.879,0,0,0,.463-.624,1.965,1.965,0,0,0,.161-.822,1.776,1.776,0,0,0-.624-1.445,2.685,2.685,0,0,0-1.767-.52h-1.955v7.279h2.381a3.772,3.772,0,0,0,1.029-.13,2.19,2.19,0,0,0,.791-.4,1.854,1.854,0,0,0,.655-1.5,2.158,2.158,0,0,0-.161-.868,1.772,1.772,0,0,0-.493-.65m-3.474-3.026h1.248a1.868,1.868,0,0,1,1.175.333,1.1,1.1,0,0,1,.416.926,1.127,1.127,0,0,1-.416.915,1.315,1.315,0,0,1-.863.333h-1.56Zm2.881,5.5a1.841,1.841,0,0,1-1.217.344h-1.664v-2.63h1.664a1.841,1.841,0,0,1,1.217.344,1.185,1.185,0,0,1,.447.981,1.2,1.2,0,0,1-.447.961" transform="translate(-141.036 -139.981)" fill="#167206"/>
        <path id="Path_1208" data-name="Path 1208" d="M1076.9,234.705a3.949,3.949,0,0,0-1.236-.837,3.851,3.851,0,0,0-3.012,0,3.94,3.94,0,0,0-2.071,2.075,3.861,3.861,0,0,0,0,3.016,3.937,3.937,0,0,0,2.071,2.075,3.856,3.856,0,0,0,3.012,0,3.94,3.94,0,0,0,2.072-2.075,3.86,3.86,0,0,0,0-3.016,3.957,3.957,0,0,0-.836-1.238m.165,3.964a3.214,3.214,0,0,1-1.685,1.693,3.011,3.011,0,0,1-1.217.25,3.049,3.049,0,0,1-1.222-.25,3.2,3.2,0,0,1-1.69-1.693,3.05,3.05,0,0,1-.25-1.224,3.009,3.009,0,0,1,.25-1.218,3.218,3.218,0,0,1,1.69-1.688,3.042,3.042,0,0,1,1.222-.25,3,3,0,0,1,1.217.25,3.233,3.233,0,0,1,1.685,1.688,3.009,3.009,0,0,1,.25,1.218,3.05,3.05,0,0,1-.25,1.224" transform="translate(-149.756 -139.682)" fill="#167206"/>
        <path id="Path_1209" data-name="Path 1209" d="M1099.451,234.705a3.947,3.947,0,0,0-1.236-.837,3.851,3.851,0,0,0-3.012,0,3.941,3.941,0,0,0-2.071,2.075,3.86,3.86,0,0,0,0,3.016,3.937,3.937,0,0,0,2.071,2.075,3.857,3.857,0,0,0,3.012,0,3.941,3.941,0,0,0,2.072-2.075,3.861,3.861,0,0,0,0-3.016,3.96,3.96,0,0,0-.836-1.238m.165,3.964a3.214,3.214,0,0,1-1.685,1.693,3.009,3.009,0,0,1-1.217.25,3.05,3.05,0,0,1-1.222-.25,3.2,3.2,0,0,1-1.69-1.693,3.059,3.059,0,0,1-.25-1.224,3.017,3.017,0,0,1,.25-1.218,3.218,3.218,0,0,1,1.69-1.688,3.042,3.042,0,0,1,1.222-.25,3,3,0,0,1,1.217.25,3.232,3.232,0,0,1,1.685,1.688,3.009,3.009,0,0,1,.25,1.218,3.05,3.05,0,0,1-.25,1.224" transform="translate(-162.03 -139.682)" fill="#167206"/>
        <path id="Path_1210" data-name="Path 1210" d="M1121.069,234.11,1117.242,238V234.11h-.728v7.279h.728v-2.277l.926-.926,3.005,3.2h1.03l-3.5-3.744,3.5-3.535Z" transform="translate(-174.925 -139.981)" fill="#167206"/>
        <path id="Path_1211" data-name="Path 1211" d="M1150,234.705a3.948,3.948,0,0,0-1.236-.837,3.851,3.851,0,0,0-3.012,0,3.939,3.939,0,0,0-2.071,2.075,3.861,3.861,0,0,0,0,3.016,3.936,3.936,0,0,0,2.071,2.075,3.856,3.856,0,0,0,3.012,0,3.94,3.94,0,0,0,2.072-2.075,3.861,3.861,0,0,0,0-3.016,3.957,3.957,0,0,0-.836-1.238m.165,3.964a3.213,3.213,0,0,1-1.685,1.693,3.01,3.01,0,0,1-1.217.25,3.047,3.047,0,0,1-1.222-.25,3.2,3.2,0,0,1-1.69-1.693,3.05,3.05,0,0,1-.25-1.224,3.009,3.009,0,0,1,.25-1.218,3.218,3.218,0,0,1,1.69-1.688,3.04,3.04,0,0,1,1.222-.25,3,3,0,0,1,1.217.25,3.231,3.231,0,0,1,1.685,1.688,3.009,3.009,0,0,1,.25,1.218,3.051,3.051,0,0,1-.25,1.224" transform="translate(-189.546 -139.682)" fill="#167206"/>
        <path id="Path_1212" data-name="Path 1212" d="M1171.276,236.315a2.776,2.776,0,0,0-.161-.946,1.752,1.752,0,0,0-.494-.738,2.026,2.026,0,0,0-.764-.4,3.566,3.566,0,0,0-.972-.125h-2.163v7.279h.728v-2.828H1169a1.539,1.539,0,0,1,1.082.354,1.349,1.349,0,0,1,.343.437,1.265,1.265,0,0,1,.115.551v1.487h.728V239.9a1.912,1.912,0,0,0-.655-1.5c-.049-.035-.1-.066-.141-.093s-.092-.056-.14-.083a1.982,1.982,0,0,0,.291-.2,2.156,2.156,0,0,0,.655-1.716m-1.2,1.206a1.781,1.781,0,0,1-1.186.354h-1.445v-3.109h1.445a1.781,1.781,0,0,1,1.186.353,1.428,1.428,0,0,1,.458,1.186,1.523,1.523,0,0,1-.458,1.217" transform="translate(-202.256 -139.981)" fill="#167206"/>
        <path id="Path_1213" data-name="Path 1213" d="M1198.16,236.315a2.773,2.773,0,0,0-.161-.946,1.75,1.75,0,0,0-.494-.738,2.024,2.024,0,0,0-.764-.4,3.564,3.564,0,0,0-.972-.125h-2.163v7.279h.728v-2.828h1.549a1.539,1.539,0,0,1,1.082.354,1.357,1.357,0,0,1,.343.437,1.265,1.265,0,0,1,.115.551v1.487h.728V239.9a1.912,1.912,0,0,0-.655-1.5c-.049-.035-.1-.066-.141-.093s-.092-.056-.14-.083a1.966,1.966,0,0,0,.291-.2,2.155,2.155,0,0,0,.655-1.716m-1.2,1.206a1.781,1.781,0,0,1-1.186.354h-1.445v-3.109h1.445a1.781,1.781,0,0,1,1.186.353,1.428,1.428,0,0,1,.458,1.186,1.523,1.523,0,0,1-.458,1.217" transform="translate(-216.89 -139.981)" fill="#167206"/>
        <path id="Path_1214" data-name="Path 1214" d="M1210.219,241.389h4.846v-.728h-4.118v-2.1h3.39v-.728h-3.39v-2.995h4.118v-.728h-4.846Z" transform="translate(-225.934 -139.981)" fill="#167206"/>
        <path id="Path_1215" data-name="Path 1215" d="M1231.248,239.933l-3.39-5.824h-.728v7.279h.728v-5.823l3.39,5.823h.728V234.11h-.728Z" transform="translate(-235.139 -139.98)" fill="#167206"/>
        <path id="Path_1216" data-name="Path 1216" d="M1243.241,234.11v.728h2.059v6.551h.728v-6.551h2.059v-.728Z" transform="translate(-243.909 -139.981)" fill="#167206"/>
        <path id="Path_1217" data-name="Path 1217" d="M814.122,191.777V186.42a6.894,6.894,0,0,0-2.36-5.4c-.175-.125-.344-.236-.506-.337s-.331-.2-.506-.3a7.028,7.028,0,0,0,1.049-.712q2.36-2.061,2.361-6.182a9.988,9.988,0,0,0-.581-3.41,6.308,6.308,0,0,0-1.779-2.661A7.322,7.322,0,0,0,809.046,166a12.849,12.849,0,0,0-3.5-.45h-7.794v26.227h2.623V181.587h5.583a5.551,5.551,0,0,1,3.9,1.274,4.871,4.871,0,0,1,1.237,1.573,4.567,4.567,0,0,1,.412,1.986v5.358Zm-4.271-13.937a6.416,6.416,0,0,1-4.272,1.274h-5.208v-11.2h5.208a6.416,6.416,0,0,1,4.272,1.274,5.14,5.14,0,0,1,1.649,4.272,5.488,5.488,0,0,1-1.649,4.384" transform="translate(-1.406 -102.66)" fill="#167206"/>
        <path id="Path_1218" data-name="Path 1218" d="M866.48,165.549h-2.886l-6.894,21.92-6.894-21.92h-2.885l8.393,26.228h2.773Z" transform="translate(-28.173 -102.66)" fill="#167206"/>
        <path id="Path_1219" data-name="Path 1219" d="M946.5,181.156a6.761,6.761,0,0,0,2.735-1.406,6.274,6.274,0,0,0,1.649-2.247,9.714,9.714,0,0,0,.6-3.972q0-4.233-2.249-6.107a9.684,9.684,0,0,0-6.37-1.873H935.07v26.227h2.622V181.587h5.171a14.078,14.078,0,0,0,3.635-.431M937.692,168.1h5.246a6.721,6.721,0,0,1,4.234,1.2q1.5,1.161,1.5,4.233,0,3.149-1.5,4.31a7.025,7.025,0,0,1-4.234,1.2h-5.246Z" transform="translate(-76.157 -102.66)" fill="#167206"/>
        <path id="Path_1220" data-name="Path 1220" d="M1009.761,167.7a14.233,14.233,0,0,0-4.453-3.016,13.867,13.867,0,0,0-10.851,0,14.186,14.186,0,0,0-7.465,7.475,13.922,13.922,0,0,0,0,10.865,14.182,14.182,0,0,0,7.465,7.474,13.867,13.867,0,0,0,10.851,0,14.184,14.184,0,0,0,7.464-7.474,13.912,13.912,0,0,0,0-10.865,14.257,14.257,0,0,0-3.012-4.459m.595,14.282a11.585,11.585,0,0,1-6.07,6.1,10.819,10.819,0,0,1-4.384.9,10.946,10.946,0,0,1-4.4-.9,11.532,11.532,0,0,1-6.089-6.1,11.013,11.013,0,0,1-.9-4.409,10.879,10.879,0,0,1,.9-4.39A11.583,11.583,0,0,1,995.5,167.1a10.968,10.968,0,0,1,4.4-.9,10.841,10.841,0,0,1,4.384.9,11.636,11.636,0,0,1,6.07,6.081,10.865,10.865,0,0,1,.9,4.39,11,11,0,0,1-.9,4.409" transform="translate(-103.82 -101.586)" fill="#167206"/>
        <path id="Path_1221" data-name="Path 1221" d="M1078.827,186.42v5.358h2.622V186.42a6.894,6.894,0,0,0-2.36-5.4c-.176-.125-.344-.236-.506-.337s-.331-.2-.506-.3a7.03,7.03,0,0,0,1.049-.712q2.36-2.061,2.361-6.182a9.985,9.985,0,0,0-.581-3.41,6.307,6.307,0,0,0-1.779-2.661,7.322,7.322,0,0,0-2.754-1.423,12.849,12.849,0,0,0-3.5-.45h-7.793v26.227h2.623V181.587h5.583a5.551,5.551,0,0,1,3.9,1.274,4.867,4.867,0,0,1,1.237,1.573,4.564,4.564,0,0,1,.412,1.986m-1.649-8.58a6.415,6.415,0,0,1-4.272,1.274H1067.7v-11.2h5.208a6.415,6.415,0,0,1,4.272,1.274,5.139,5.139,0,0,1,1.649,4.272,5.488,5.488,0,0,1-1.649,4.384" transform="translate(-146.925 -102.66)" fill="#167206"/>
        <path id="Path_1222" data-name="Path 1222" d="M1130.064,165.549H1112.6v2.622h7.419v23.605h2.622V168.172h7.419Z" transform="translate(-172.797 -102.66)" fill="#167206"/>
        <path id="Path_1223" data-name="Path 1223" d="M1177.882,191.777l-8.393-26.228h-2.773l-8.393,26.228h2.885l3.26-10.191h7.231l3.3,10.191Zm-12.552-12.815,2.773-9.1,2.773,9.1Z" transform="translate(-197.684 -102.66)" fill="#167206"/>
        <path id="Path_1224" data-name="Path 1224" d="M1231.863,189.155h-14.838V165.55H1214.4v26.227h17.46Z" transform="translate(-228.211 -102.66)" fill="#167206"/>
        <path id="Path_1225" data-name="Path 1225" d="M1080.629,73.721a11.081,11.081,0,0,1-5.765,5.765,10.387,10.387,0,0,1-4.232.866,10.546,10.546,0,0,1-4.3-.866,11.145,11.145,0,0,1-3.433-2.333,10.736,10.736,0,0,1-3.133-7.665H1055.1a14.941,14.941,0,0,0,1.233,6.033,15.652,15.652,0,0,0,8.265,8.264,15.363,15.363,0,0,0,12.065,0,15.66,15.66,0,0,0,8.265-8.264,14.956,14.956,0,0,0,1.233-6.033V36.76h-27.049l-4.625,4.666H1081.5V69.488a10.388,10.388,0,0,1-.867,4.233" transform="translate(-141.162 -32.554)" fill="#167206"/>
        <path id="Path_1226" data-name="Path 1226" d="M1158.491,78.031,1151.007,89.9h11.259c-.093,2.1-.193,4.117-.268,6.13,0,.042,0,.078,0,.118h3.5c-.076-2.087-.151-4.162-.229-6.288h4.821l-.789,1.251h9.078c-.075,1.7-.155,3.32-.216,4.943,0,.034,0,.063,0,.095h2.824c-.061-1.683-.122-3.356-.185-5.071h9.017l-6.011-9.587h3.867l-5.26-8.41h3.163l-5.991-9.458-6.01,9.5h3.158l-2.995,4.758-6.468-10.341h3.923l-7.429-11.729-7.454,11.783h3.916l-6.568,10.436Zm15.19-.06-2.246,3.569h3.9l-2.056,3.262-4.283-6.831Z" transform="translate(-193.701 -42.924)" fill="#167206"/>
        <path id="Path_1227" data-name="Path 1227" d="M817.711,92.347c-.088,1.989-.182,3.891-.253,5.794,0,.039,0,.073,0,.111h3.31c-.072-1.972-.143-3.934-.216-5.944h10.568l-7.046-11.237H828.6l-6.165-9.857h3.708l-7.022-11.086-7.045,11.136h3.7l-6.208,9.863h4.571L807.07,92.347Z" transform="translate(-6.48 -45.274)" fill="#167206"/>
        <path id="Path_1228" data-name="Path 1228" d="M848.293,145.58l-1.367.021q-24.678.278-49.357,1.085,24.678.8,49.357,1.078,1.731.031,3.461.049a11.959,11.959,0,0,1-2.094-2.232" transform="translate(-1.308 -91.79)" fill="#167206"/>
        <path id="Path_1229" data-name="Path 1229" d="M953.416,145.023c-1.051.007-2.1.021-3.145.027a12.356,12.356,0,0,1-2.41,2.561c1.847.007,3.7.028,5.555.041l24.678.076,24.679-.069c8.226-.076,16.453-.1,24.679-.234q24.678-.267,49.357-1.085-24.678-.813-49.357-1.092c-8.226-.13-16.453-.151-24.679-.226l-24.679-.076Z" transform="translate(-83.119 -91.445)" fill="#167206"/>
        <path id="Path_1230" data-name="Path 1230" d="M934.668,37.915H918.752l-10.2,16.026h26.117Z" transform="translate(-61.721 -33.182)" fill="#167206"/>
        <rect id="Rectangle_516" data-name="Rectangle 516" width="6.903" height="2.104" transform="translate(865.983 23.543)" fill="#167206"/>
        <path id="Path_1231" data-name="Path 1231" d="M1017.567-8.888a856.86,856.86,0,0,0-88.623,0,856.86,856.86,0,0,0,88.623,0" transform="translate(-72.822 -7.081)" fill="#167206"/>
        <path id="Path_1232" data-name="Path 1232" d="M1017.567,3.585a856.86,856.86,0,0,0-88.623,0,856.86,856.86,0,0,0,88.623,0" transform="translate(-72.822 -13.871)" fill="#167206"/>
        <path id="Path_1233" data-name="Path 1233" d="M1017.567,14.55a856.988,856.988,0,0,0-88.623,0,856.733,856.733,0,0,0,88.623,0" transform="translate(-72.822 -19.84)" fill="#167206"/>
        <path id="Path_1234" data-name="Path 1234" d="M867.1,50.865h17.682a9.735,9.735,0,0,0,.461.879,10.08,10.08,0,0,0,1.51,2.019,10.6,10.6,0,0,0,11.982,2.376,10.477,10.477,0,0,0,3.488-2.52,10.028,10.028,0,0,0,1.387-1.875,9.587,9.587,0,0,0,.453-.879h15.624v-14.6l5.932-5.931,19.263,20.529h6.6l-22.463-24L951.482,4.206h-7.265L919.687,29.137V4.206h-4.665V48.641H904.805a10.493,10.493,0,0,0,.226-2.2,10.607,10.607,0,0,0-20.422-4.024H867.1c-.1,0-.185.02-.279.028V24.484l.062-.046-.092-.213c0-.014-.2-1.451,3.015-3.247,4-2.238,8.536-4.774,12.128-8.515,3.474-3.62,8.219-12.308,8.418-12.676l.9-1.646h-4.291l-4.186-3.735c-.3-.491-1.464-2.625-.6-4.381a111.44,111.44,0,0,1,6.3-9.464c.24-.223,1.624-1.372,4.7-1.372h83.177c.073-.005,7.76-.246,12.666,4.473,2.757,2.652,4.156,6.4,4.156,11.151V31.946h2.227V-5.186c0-5.384-1.633-9.68-4.852-12.768-5.6-5.378-13.935-5.1-14.241-5.082H893.157c-4.312,0-6.169,1.906-6.366,2.123l-.077.093c-.213.293-5.242,7.2-6.549,9.867-1.546,3.156.727,6.568.825,6.711L886.107.369h1.364c-1.552,2.709-4.748,8.056-7.144,10.552-3.361,3.5-7.743,5.952-11.608,8.114-4.257,2.381-4.249,4.806-4.123,5.559V43.663a3.131,3.131,0,0,0-.674,1.929v2.1a3.179,3.179,0,0,0,3.179,3.172m27.322-12.133a7.715,7.715,0,0,1,7.719,7.711,7.778,7.778,0,0,1-1.394,4.422,7.352,7.352,0,0,1-.714.879,7.678,7.678,0,0,1-5.61,2.417,7.672,7.672,0,0,1-2.616-.453H891.8a7.7,7.7,0,0,1-2.98-1.964,7.3,7.3,0,0,1-.714-.879,7.769,7.769,0,0,1-1.394-4.422,7.756,7.756,0,0,1,.213-1.8,7.477,7.477,0,0,1,.926-2.225,7.7,7.7,0,0,1,6.571-3.687m-10.444,5.912a10.333,10.333,0,0,0-.158,1.8,10.5,10.5,0,0,0,.226,2.2H867.1a.949.949,0,0,1-.947-.948v-2.1a.949.949,0,0,1,.947-.948Z" transform="translate(-37.427)" fill="#167206"/>
      </g>
    </g>
  </g>
</svg>
