<svg xmlns="http://www.w3.org/2000/svg" width="362.55" height="146.734" viewBox="0 0 362.55 146.734">
  <g id="Group_942" data-name="Group 942" transform="translate(-6 -665.266)">
    <path id="Path_1226" data-name="Path 1226" d="M1176.417,131.254c-8.532,13.536-16.806,26.658-25.41,40.307h38.229c-.316,7.146-.655,13.978-.91,20.813-.005.142-.009.265-.015.4H1200.2c-.259-7.086-.514-14.133-.777-21.352h16.37c-.893,1.414-1.779,2.82-2.678,4.247h30.825c-.254,5.763-.528,11.272-.733,16.783,0,.115-.008.213-.013.322h9.588c-.207-5.713-.414-11.394-.627-17.218h30.616c-6.868-10.952-13.513-21.55-20.41-32.551h13.13c-5.993-9.584-11.784-18.842-17.858-28.553h10.74l-20.341-32.113c-6.851,10.828-13.506,21.349-20.408,32.259h10.722c-3.429,5.447-6.792,10.793-10.168,16.155l-21.961-35.113h13.319l-25.225-39.826c-8.5,13.429-16.75,26.476-25.311,40.007h13.3c-7.51,11.933-14.761,23.453-22.3,35.435Zm51.576-.2c-2.523,4.01-5.053,8.029-7.627,12.118h13.24c-2.345,3.722-4.666,7.4-6.982,11.076l-14.543-23.194Z" transform="translate(-914.223 619.227)" fill="#167206" opacity="0.1"/>
    <path id="Path_1235" data-name="Path 1235" d="M1176.417,131.254c-8.532,13.536-16.806,26.658-25.41,40.307h38.229c-.316,7.146-.655,13.978-.91,20.813-.005.142-.009.265-.015.4H1200.2c-.259-7.086-.514-14.133-.777-21.352h16.37c-.893,1.414-1.779,2.82-2.678,4.247h30.825c-.254,5.763-.528,11.272-.733,16.783,0,.115-.008.213-.013.322h9.588c-.207-5.713-.414-11.394-.627-17.218h30.616c-6.868-10.952-13.513-21.55-20.41-32.551h13.13c-5.993-9.584-11.784-18.842-17.858-28.553h10.74l-20.341-32.113c-6.851,10.828-13.506,21.349-20.408,32.259h10.722c-3.429,5.447-6.792,10.793-10.168,16.155l-21.961-35.113h13.319l-25.225-39.826c-8.5,13.429-16.75,26.476-25.311,40.007h13.3c-7.51,11.933-14.761,23.453-22.3,35.435Zm51.576-.2c-2.523,4.01-5.053,8.029-7.627,12.118h13.24c-2.345,3.722-4.666,7.4-6.982,11.076l-14.543-23.194Z" transform="translate(-1145.007 619.227)" fill="#167206" opacity="0.1"/>
    <path id="Path_1227" data-name="Path 1227" d="M848.027,184.137c-.339,7.655-.7,14.976-.973,22.3-.007.151-.012.281-.017.426h12.74c-.277-7.59-.551-15.141-.833-22.877H899.62c-9.125-14.551-17.952-28.633-27.119-43.251H889.95C881.986,128,874.292,115.7,866.221,102.8h14.271c-9.141-14.429-17.969-28.368-27.028-42.668-9.1,14.387-17.945,28.366-27.116,42.861h14.246c-8.046,12.784-15.814,25.127-23.894,37.965h17.593c-9.143,14.5-18,28.561-27.222,43.182Z" transform="translate(-666.07 605.137)" fill="#167206" opacity="0.1"/>
  </g>
</svg>
